<svg width="120" height="120" viewBox="0 0 120 120" fill="none" xmlns="http://www.w3.org/2000/svg">
<rect width="120" height="120" fill="white"/>
<circle cx="60" cy="60" r="54" stroke="url(#paint0_linear_43_8531)" stroke-width="6"/>
<path d="M65.08 56.85C65.8267 56.85 66.41 57.0833 66.83 57.55C67.2967 57.97 67.8567 58.8333 68.51 60.14L74.95 73.02C75.1833 73.4867 75.4633 73.7667 75.79 73.86C76.1633 73.9533 76.5133 74 76.84 74H77.19C77.5633 74 77.9133 73.86 78.24 73.58C78.5667 73.2533 78.7533 72.9033 78.8 72.53L80.55 64.55C80.7367 63.6633 80.83 62.52 80.83 61.12C80.8767 59.72 80.9 58.5067 80.9 57.48V36.9H81.6V57.55C81.6 58.5767 81.5767 59.79 81.53 61.19C81.53 62.59 81.4367 63.7333 81.25 64.62L79.5 72.53C79.3133 73.2767 79.01 73.8367 78.59 74.21C78.2167 74.5367 77.75 74.7 77.19 74.7H76.7C76.28 74.7 75.8367 74.63 75.37 74.49C74.95 74.3033 74.6233 73.9767 74.39 73.51L67.95 60.49C67.3433 59.2767 66.8533 58.4833 66.48 58.11C66.1067 57.7367 65.64 57.55 65.08 57.55H63.33C62.77 57.55 62.3033 57.7367 61.93 58.11C61.5567 58.4833 61.0667 59.2767 60.46 60.49L54.02 73.51C53.7867 73.9767 53.4367 74.3033 52.97 74.49C52.55 74.63 52.13 74.7 51.71 74.7H51.22C50.66 74.7 50.17 74.5367 49.75 74.21C49.3767 73.8367 49.0967 73.2767 48.91 72.53L47.16 64.62C46.9733 63.7333 46.8567 62.59 46.81 61.19C46.81 59.79 46.81 58.5767 46.81 57.55V36.9H47.51V57.48C47.51 58.5067 47.51 59.72 47.51 61.12C47.5567 62.52 47.6733 63.6633 47.86 64.55L49.61 72.53C49.6567 72.9033 49.8433 73.2533 50.17 73.58C50.4967 73.86 50.8467 74 51.22 74H51.57C51.8967 74 52.2233 73.9533 52.55 73.86C52.9233 73.7667 53.2267 73.4867 53.46 73.02L59.9 60.14C60.5533 58.8333 61.09 57.97 61.51 57.55C61.9767 57.0833 62.5833 56.85 63.33 56.85H65.08ZM76.07 30.6C75.1833 30.6 74.53 30.81 74.11 31.23C73.7367 31.6033 73.55 32.2333 73.55 33.12V58.88L69.49 50.06C69.1167 49.2667 68.6267 48.7067 68.02 48.38C67.4133 48.0533 66.6667 47.89 65.78 47.89H62.84C61.9533 47.89 61.2067 48.0533 60.6 48.38C59.9933 48.7067 59.5033 49.2667 59.13 50.06L55.07 58.88V33.12C55.07 32.2333 54.86 31.6033 54.44 31.23C54.0667 30.81 53.4367 30.6 52.55 30.6H41.77C40.8833 30.6 40.23 30.81 39.81 31.23C39.4367 31.6033 39.25 32.2333 39.25 33.12V60.14C39.25 61.6333 39.2967 63.0333 39.39 64.34C39.53 65.6 39.9033 67.0933 40.51 68.82L44.01 78.48C44.2433 79.2267 44.6167 79.8333 45.13 80.3C45.69 80.7667 46.3433 81 47.09 81H56.33C57.0767 81 57.7067 80.8367 58.22 80.51C58.7333 80.1367 59.0833 79.6 59.27 78.9L62.56 67.49C62.7 67.0233 62.8633 66.72 63.05 66.58C63.2833 66.3933 63.54 66.3 63.82 66.3H64.45C64.73 66.3 64.9633 66.3933 65.15 66.58C65.3833 66.72 65.57 67.0233 65.71 67.49L68.93 78.9C69.1167 79.6467 69.5133 80.1833 70.12 80.51C70.7267 80.8367 71.4033 81 72.15 81H81.46C82.2067 81 82.79 80.7667 83.21 80.3C83.6767 79.7867 84.0267 79.18 84.26 78.48L87.76 68.96C88.3667 67.2333 88.7167 65.74 88.81 64.48C88.95 63.1733 89.02 61.7733 89.02 60.28V33.12C89.02 32.2333 88.81 31.6033 88.39 31.23C88.0167 30.81 87.3867 30.6 86.5 30.6H76.07ZM49.75 88.49C49.4233 88.7233 49.05 88.91 48.63 89.05C48.21 89.2367 47.7667 89.33 47.3 89.33H38.06C37.1733 89.33 36.4033 89.05 35.75 88.49C35.0967 87.93 34.63 87.2067 34.35 86.32L30.85 76.66C30.1967 74.9333 29.8 73.4167 29.66 72.11C29.5667 70.7567 29.52 69.31 29.52 67.77V40.75C29.52 40.1433 29.59 39.63 29.73 39.21C29.9167 38.79 30.1733 38.44 30.5 38.16L39.53 30.53C39.7633 30.3433 40.0667 30.2033 40.44 30.11C40.86 29.97 41.3033 29.9 41.77 29.9H52.55C53.67 29.9 54.4867 30.1567 55 30.67C55.5133 31.1833 55.77 32 55.77 33.12V51.39L59.69 48.1C60.0633 47.7733 60.5067 47.54 61.02 47.4C61.58 47.26 62.1867 47.19 62.84 47.19H63.82V40.75C63.82 40.1433 63.89 39.63 64.03 39.21C64.17 38.79 64.38 38.4633 64.66 38.23L64.73 38.16L73.83 30.53C74.0633 30.3433 74.3667 30.2033 74.74 30.11C75.1133 29.97 75.5567 29.9 76.07 29.9H86.5C87.62 29.9 88.4367 30.1567 88.95 30.67C89.4633 31.1833 89.72 32 89.72 33.12V60.28C89.72 61.82 89.65 63.2667 89.51 64.62C89.4167 65.9267 89.0433 67.4433 88.39 69.17L84.89 78.69C84.75 79.1567 84.5633 79.5767 84.33 79.95C84.0967 80.3233 83.8167 80.6733 83.49 81L74.46 88.49C74.18 88.77 73.8767 88.98 73.55 89.12C73.2233 89.26 72.85 89.33 72.43 89.33H63.12C62.1867 89.33 61.37 89.12 60.67 88.7C59.97 88.28 59.48 87.6267 59.2 86.74L57.8 81.77L49.75 88.49Z" fill="url(#paint1_linear_43_8531)"/>
<defs>
<linearGradient id="paint0_linear_43_8531" x1="60" y1="3" x2="60" y2="117" gradientUnits="userSpaceOnUse">
<stop stop-color="#6CD9DE"/>
<stop offset="0.338542" stop-color="#D6429D"/>
<stop offset="0.890625" stop-color="#63168B"/>
</linearGradient>
<linearGradient id="paint1_linear_43_8531" x1="50.5" y1="14" x2="50.5" y2="73" gradientUnits="userSpaceOnUse">
<stop offset="0.307292" stop-color="#6BD8DD"/>
<stop offset="0.59375" stop-color="#DD3798"/>
<stop offset="0.895833" stop-color="#5C148A"/>
</linearGradient>
</defs>
</svg>
